<?xml version="1.0" encoding="UTF-8" standalone="no"?>
<!-- Created with Inkscape (http://www.inkscape.org/) -->

<svg
   width="221.63972mm"
   height="85.566444mm"
   viewBox="0 0 221.63972 85.566444"
   version="1.1"
   id="svg277"
   inkscape:version="1.2.1 (9c6d41e410, 2022-07-14)"
   sodipodi:docname="ColorLogoOpenHardware-noBackground.svg"
   xmlns:inkscape="http://www.inkscape.org/namespaces/inkscape"
   xmlns:sodipodi="http://sodipodi.sourceforge.net/DTD/sodipodi-0.dtd"
   xmlns="http://www.w3.org/2000/svg"
   xmlns:svg="http://www.w3.org/2000/svg">
  <sodipodi:namedview
     id="namedview279"
     pagecolor="#ffffff"
     bordercolor="#000000"
     borderopacity="0.25"
     inkscape:showpageshadow="2"
     inkscape:pageopacity="0.0"
     inkscape:pagecheckerboard="0"
     inkscape:deskcolor="#d1d1d1"
     inkscape:document-units="mm"
     showgrid="false"
     inkscape:zoom="1.2938725"
     inkscape:cx="252.34326"
     inkscape:cy="200.56072"
     inkscape:window-width="2400"
     inkscape:window-height="1321"
     inkscape:window-x="2391"
     inkscape:window-y="-9"
     inkscape:window-maximized="1"
     inkscape:current-layer="g261" />
  <defs
     id="defs274" />
  <g
     inkscape:groupmode="layer"
     id="layer4"
     inkscape:label="OpenHardware_Red"
     transform="translate(-38.507369,-50.061025)"
     style="display:none">
    <g
       id="g4055"
       transform="matrix(0.91336216,0,0,-0.91336216,112.52867,112.85955)"
       style="display:inline">
      <path
         inkscape:connector-curvature="0"
         d="m 0,0 6.807,-9.92 -9.132,-9.134 -9.75,6.692 c -0.174,0.119 -0.413,0.187 -0.658,0.187 -0.206,0 -0.407,-0.048 -0.566,-0.136 l -4.38,-2.339 -8.889,21.479 1.378,0.689 c 0.194,0.124 0.388,0.273 0.569,0.426 l 0.101,0.089 0.082,0.05 c 3.956,2.592 6.318,6.957 6.318,11.677 0,7.696 -6.262,13.956 -13.956,13.956 -7.696,0 -13.956,-6.26 -13.956,-13.956 0,-4.721 2.362,-9.087 6.318,-11.678 l 0.113,-0.073 0.07,-0.065 c 0.303,-0.259 0.54,-0.411 0.605,-0.452 l 1.287,-0.784 -0.573,-1.395 -8.261,-19.963 -4.352,2.325 c -0.187,0.1 -0.38,0.15 -0.594,0.15 -0.244,0 -0.485,-0.068 -0.66,-0.189 l -9.745,-6.69 -9.135,9.133 6.801,9.913 c 0.229,0.331 0.276,0.843 0.112,1.213 l -3.665,9.159 c -0.134,0.373 -0.518,0.704 -0.91,0.778 l -11.985,2.23 v 12.917 l 12.27,2.282 c 0.395,0.074 0.788,0.402 0.935,0.78 l 3.662,8.545 c 0.19,0.409 0.163,0.923 -0.074,1.27 l -7.145,10.414 9.132,9.13 10.597,-7.271 c 0.187,-0.128 0.449,-0.202 0.714,-0.202 0.182,0 0.355,0.034 0.496,0.097 l 8.285,3.392 c 0.421,0.159 0.762,0.543 0.841,0.954 l 2.359,12.679 h 12.916 l 2.361,-12.694 c 0.073,-0.384 0.41,-0.778 0.785,-0.917 l 8.284,-3.391 c 0.188,-0.083 0.361,-0.12 0.55,-0.12 0.268,0 0.528,0.074 0.713,0.202 l 10.6,7.271 9.132,-9.13 -7.15,-10.419 C -0.571,38.829 -0.61,38.32 -0.438,37.95 l 3.665,-8.544 c 0.166,-0.421 0.548,-0.76 0.952,-0.834 L 16.454,26.289 16.453,13.372 4.481,11.144 C 4.084,11.072 3.694,10.739 3.556,10.354 L -0.11,1.195 C -0.271,0.835 -0.226,0.328 0,0 m 3.844,10.251 c 0.1,0.278 0.401,0.539 0.693,0.592 l 12.223,2.274 10e-4,13.426 -12.527,2.33 C 3.95,28.925 3.643,29.185 3.509,29.527 l -3.669,8.554 c -0.126,0.268 -0.097,0.666 0.069,0.907 L 7.202,49.616 -2.29,59.107 -13.1,51.69 c -0.134,-0.092 -0.336,-0.148 -0.538,-0.148 -0.136,0 -0.268,0.027 -0.434,0.099 l -8.292,3.394 c -0.279,0.103 -0.538,0.409 -0.591,0.686 l -2.408,12.944 h -13.425 l -2.405,-12.927 c -0.056,-0.292 -0.317,-0.6 -0.658,-0.728 l -8.294,-3.396 c -0.102,-0.046 -0.234,-0.072 -0.37,-0.072 -0.202,0 -0.403,0.056 -0.541,0.151 l -10.806,7.414 -9.492,-9.49 7.289,-10.623 c 0.169,-0.249 0.2,-0.643 0.044,-0.977 l -3.667,-8.557 c -0.106,-0.276 -0.416,-0.535 -0.705,-0.588 l -12.52,-2.329 V 13.117 l 12.236,-2.276 c 0.282,-0.052 0.581,-0.312 0.681,-0.591 l 3.669,-9.168 c 0.121,-0.272 0.086,-0.671 -0.084,-0.916 l -6.945,-10.123 9.495,-9.492 9.956,6.833 c 0.124,0.086 0.306,0.136 0.486,0.136 0.156,0 0.301,-0.035 0.448,-0.116 l 4.652,-2.483 8.39,20.275 0.673,1.637 -1.509,0.921 c -0.124,0.076 -0.337,0.225 -0.567,0.423 l -0.102,0.088 -0.112,0.073 c -3.871,2.535 -6.181,6.805 -6.181,11.422 0,7.527 6.123,13.65 13.651,13.65 7.525,0 13.648,-6.123 13.648,-13.65 0,-4.617 -2.308,-8.886 -6.176,-11.42 l -0.115,-0.074 -0.102,-0.089 c -0.167,-0.144 -0.355,-0.286 -0.506,-0.385 l -1.634,-0.817 9.128,-22.054 4.683,2.501 c 0.114,0.062 0.262,0.098 0.417,0.098 0.179,0 0.363,-0.05 0.484,-0.134 l 9.959,-6.835 9.493,9.493 -6.95,10.129 C 0.089,0.412 0.054,0.812 0.174,1.082 Z"
         style="fill:#292929;fill-opacity:1;fill-rule:nonzero;stroke:none"
         id="path4057" />
    </g>
    <path
       style="fill:#a02c2c;stroke:#2b0000;stroke-width:3.38555;stroke-dasharray:none"
       d="m 196.36278,476.14311 -15.39012,-15.40457 3.88913,-5.65624 c 2.13902,-3.11094 7.37382,-10.72771 11.63289,-16.92618 4.25906,-6.19846 7.97257,-11.99086 8.25223,-12.87201 0.34384,-1.08332 -1.6423,-6.97817 -6.13379,-18.20511 -3.65325,-9.13168 -7.05715,-17.16322 -7.56423,-17.84787 -0.65786,-0.88822 -6.86599,-2.35234 -21.67178,-5.11104 -11.4124,-2.12643 -21.06366,-3.86623 -21.44724,-3.86623 -0.3983,0 -0.69743,-9.42015 -0.69743,-21.96286 v -21.96286 l 3.67115,-0.77303 c 2.01913,-0.42517 11.82646,-2.26971 21.79405,-4.09896 12.95635,-2.37775 18.44065,-3.69702 19.23746,-4.62763 0.61301,-0.71594 4.0249,-8.0298 7.58199,-16.25302 4.44715,-10.28088 6.38916,-15.6756 6.21688,-17.26993 -0.15875,-1.46915 -4.72717,-8.79323 -12.46943,-19.99095 l -12.21889,-17.67231 15.36087,-15.37611 c 8.44848,-8.45686 15.77,-15.21932 16.27004,-15.02769 0.50004,0.19162 8.81959,5.7849 18.48788,12.4295 11.10947,7.63506 18.31227,12.09771 19.57199,12.12624 2.19099,0.0496 30.71215,-11.33648 32.43774,-12.94967 0.88538,-0.82771 3.98295,-15.80128 8.90497,-43.0465 l 0.5236,-2.89828 h 21.95685 21.95686 l 0.46279,2.51184 c 5.97538,32.43212 8.07659,42.59955 8.97358,43.42159 1.79702,1.64686 30.30082,13.01857 32.4942,12.9637 1.3377,-0.0335 8.23272,-4.29561 19.70828,-12.18262 9.70791,-6.67213 17.99854,-12.26459 18.42362,-12.42768 0.42508,-0.16309 7.68141,6.61885 16.12516,15.07098 l 15.35229,15.36752 -12.45401,18.18253 c -6.84971,10.0004 -12.45401,18.88958 -12.45401,19.75373 0,2.22555 12.86871,31.90881 14.49618,33.43723 0.89005,0.83588 7.38442,2.37241 19.12382,4.52458 9.77685,1.79238 19.42811,3.60674 21.44725,4.03191 l 3.67115,0.77303 V 358.291 c 0,12.07957 -0.28122,21.96286 -0.62493,21.96286 -2.09914,0 -42.30955,7.84601 -42.81844,8.3549 -1.49855,1.49855 -14.48835,35.36076 -14.07013,36.67844 0.24863,0.78336 5.39433,8.62182 11.43489,17.41881 6.04056,8.79699 11.27214,16.46758 11.62573,17.04576 0.45887,0.75031 -2.53499,4.2348 -10.45878,12.17276 -6.10594,6.11684 -11.32933,11.12153 -11.60756,11.12153 -0.27823,0 -0.72157,-0.85945 -0.98521,-1.90988 -0.26365,-1.05043 -1.22967,-2.31144 -2.14673,-2.80223 -0.91705,-0.49079 -7.72578,-1.691 -15.13049,-2.66714 -7.40473,-0.97614 -13.60008,-1.91174 -13.76746,-2.07912 -0.16738,-0.16738 -2.83192,-5.594 -5.92118,-12.05917 l -5.61686,-11.75485 0.62209,-13.16831 0.62209,-13.16831 6.98005,-10.19171 c 11.23545,-16.40511 14.92585,-19.44584 28.87371,-23.79065 4.25081,-1.32415 9.86321,-3.37474 12.47202,-4.55688 9.73737,-4.41232 19.14909,-12.34113 21.59336,-18.19109 1.59254,-3.81149 1.40203,-10.65511 -0.39466,-14.1769 -3.41262,-6.6893 -15.21834,-15.29214 -35.41003,-25.80336 -8.58273,-4.46791 -10.31212,-5.66554 -10.68061,-7.39647 -2.38092,-11.1838 -9.97732,-18.23608 -21.90652,-20.33737 -8.36028,-1.47264 -19.68072,2.26419 -29.31303,9.67608 -3.32417,2.55788 -6.07605,3.87804 -10.75918,5.16146 l -6.29259,1.72452 -3.83785,-1.651 c -9.2145,-3.96397 -21.34486,-5.05046 -31.01553,-2.77799 -17.08935,4.01577 -31.5626,18.30786 -35.92701,35.47732 -0.64401,2.53352 -1.17092,5.54781 -1.17092,6.69841 0,1.57061 -1.27539,3.31193 -5.11722,6.98671 -20.25322,19.37248 -36.31541,46.55427 -44.75804,75.74331 -3.5976,12.43814 -6.80757,29.46115 -6.33911,33.61736 0.50345,4.46655 3.53648,8.88886 8.29361,12.0925 3.60055,2.42475 3.77652,2.68833 2.51657,3.76948 -1.52527,1.30883 -8.45144,6.03689 -8.84347,6.03689 -0.13994,0 -7.17998,-6.93205 -15.64455,-15.40456 z"
       id="path2249"
       transform="scale(0.26458333)" />
  </g>
  <g
     inkscape:groupmode="layer"
     id="g254"
     inkscape:label="OpenHardware_Yellow"
     transform="translate(-38.507369,-50.061025)"
     style="display:inline;fill:#ffd42a">
    <g
       id="g250"
       transform="matrix(0.91336216,0,0,-0.91336216,112.52867,112.85955)"
       style="display:inline;fill:#ffd42a">
      <path
         inkscape:connector-curvature="0"
         d="m 0,0 6.807,-9.92 -9.132,-9.134 -9.75,6.692 c -0.174,0.119 -0.413,0.187 -0.658,0.187 -0.206,0 -0.407,-0.048 -0.566,-0.136 l -4.38,-2.339 -8.889,21.479 1.378,0.689 c 0.194,0.124 0.388,0.273 0.569,0.426 l 0.101,0.089 0.082,0.05 c 3.956,2.592 6.318,6.957 6.318,11.677 0,7.696 -6.262,13.956 -13.956,13.956 -7.696,0 -13.956,-6.26 -13.956,-13.956 0,-4.721 2.362,-9.087 6.318,-11.678 l 0.113,-0.073 0.07,-0.065 c 0.303,-0.259 0.54,-0.411 0.605,-0.452 l 1.287,-0.784 -0.573,-1.395 -8.261,-19.963 -4.352,2.325 c -0.187,0.1 -0.38,0.15 -0.594,0.15 -0.244,0 -0.485,-0.068 -0.66,-0.189 l -9.745,-6.69 -9.135,9.133 6.801,9.913 c 0.229,0.331 0.276,0.843 0.112,1.213 l -3.665,9.159 c -0.134,0.373 -0.518,0.704 -0.91,0.778 l -11.985,2.23 v 12.917 l 12.27,2.282 c 0.395,0.074 0.788,0.402 0.935,0.78 l 3.662,8.545 c 0.19,0.409 0.163,0.923 -0.074,1.27 l -7.145,10.414 9.132,9.13 10.597,-7.271 c 0.187,-0.128 0.449,-0.202 0.714,-0.202 0.182,0 0.355,0.034 0.496,0.097 l 8.285,3.392 c 0.421,0.159 0.762,0.543 0.841,0.954 l 2.359,12.679 h 12.916 l 2.361,-12.694 c 0.073,-0.384 0.41,-0.778 0.785,-0.917 l 8.284,-3.391 c 0.188,-0.083 0.361,-0.12 0.55,-0.12 0.268,0 0.528,0.074 0.713,0.202 l 10.6,7.271 9.132,-9.13 -7.15,-10.419 C -0.571,38.829 -0.61,38.32 -0.438,37.95 l 3.665,-8.544 c 0.166,-0.421 0.548,-0.76 0.952,-0.834 L 16.454,26.289 16.453,13.372 4.481,11.144 C 4.084,11.072 3.694,10.739 3.556,10.354 L -0.11,1.195 C -0.271,0.835 -0.226,0.328 0,0 m 3.844,10.251 c 0.1,0.278 0.401,0.539 0.693,0.592 l 12.223,2.274 10e-4,13.426 -12.527,2.33 C 3.95,28.925 3.643,29.185 3.509,29.527 l -3.669,8.554 c -0.126,0.268 -0.097,0.666 0.069,0.907 L 7.202,49.616 -2.29,59.107 -13.1,51.69 c -0.134,-0.092 -0.336,-0.148 -0.538,-0.148 -0.136,0 -0.268,0.027 -0.434,0.099 l -8.292,3.394 c -0.279,0.103 -0.538,0.409 -0.591,0.686 l -2.408,12.944 h -13.425 l -2.405,-12.927 c -0.056,-0.292 -0.317,-0.6 -0.658,-0.728 l -8.294,-3.396 c -0.102,-0.046 -0.234,-0.072 -0.37,-0.072 -0.202,0 -0.403,0.056 -0.541,0.151 l -10.806,7.414 -9.492,-9.49 7.289,-10.623 c 0.169,-0.249 0.2,-0.643 0.044,-0.977 l -3.667,-8.557 c -0.106,-0.276 -0.416,-0.535 -0.705,-0.588 l -12.52,-2.329 V 13.117 l 12.236,-2.276 c 0.282,-0.052 0.581,-0.312 0.681,-0.591 l 3.669,-9.168 c 0.121,-0.272 0.086,-0.671 -0.084,-0.916 l -6.945,-10.123 9.495,-9.492 9.956,6.833 c 0.124,0.086 0.306,0.136 0.486,0.136 0.156,0 0.301,-0.035 0.448,-0.116 l 4.652,-2.483 8.39,20.275 0.673,1.637 -1.509,0.921 c -0.124,0.076 -0.337,0.225 -0.567,0.423 l -0.102,0.088 -0.112,0.073 c -3.871,2.535 -6.181,6.805 -6.181,11.422 0,7.527 6.123,13.65 13.651,13.65 7.525,0 13.648,-6.123 13.648,-13.65 0,-4.617 -2.308,-8.886 -6.176,-11.42 l -0.115,-0.074 -0.102,-0.089 c -0.167,-0.144 -0.355,-0.286 -0.506,-0.385 l -1.634,-0.817 9.128,-22.054 4.683,2.501 c 0.114,0.062 0.262,0.098 0.417,0.098 0.179,0 0.363,-0.05 0.484,-0.134 l 9.959,-6.835 9.493,9.493 -6.95,10.129 C 0.089,0.412 0.054,0.812 0.174,1.082 Z"
         style="fill:#ffd42a;fill-opacity:1;fill-rule:nonzero;stroke:none"
         id="path248" />
    </g>
    <path
       style="fill:#ffd42a;stroke:#2b0000;stroke-width:3.38555;stroke-dasharray:none"
       d="m 196.36278,476.14311 -15.39012,-15.40457 3.88913,-5.65624 c 2.13902,-3.11094 7.37382,-10.72771 11.63289,-16.92618 4.25906,-6.19846 7.97257,-11.99086 8.25223,-12.87201 0.34384,-1.08332 -1.6423,-6.97817 -6.13379,-18.20511 -3.65325,-9.13168 -7.05715,-17.16322 -7.56423,-17.84787 -0.65786,-0.88822 -6.86599,-2.35234 -21.67178,-5.11104 -11.4124,-2.12643 -21.06366,-3.86623 -21.44724,-3.86623 -0.3983,0 -0.69743,-9.42015 -0.69743,-21.96286 v -21.96286 l 3.67115,-0.77303 c 2.01913,-0.42517 11.82646,-2.26971 21.79405,-4.09896 12.95635,-2.37775 18.44065,-3.69702 19.23746,-4.62763 0.61301,-0.71594 4.0249,-8.0298 7.58199,-16.25302 4.44715,-10.28088 6.38916,-15.6756 6.21688,-17.26993 -0.15875,-1.46915 -4.72717,-8.79323 -12.46943,-19.99095 l -12.21889,-17.67231 15.36087,-15.37611 c 8.44848,-8.45686 15.77,-15.21932 16.27004,-15.02769 0.50004,0.19162 8.81959,5.7849 18.48788,12.4295 11.10947,7.63506 18.31227,12.09771 19.57199,12.12624 2.19099,0.0496 30.71215,-11.33648 32.43774,-12.94967 0.88538,-0.82771 3.98295,-15.80128 8.90497,-43.0465 l 0.5236,-2.89828 h 21.95685 21.95686 l 0.46279,2.51184 c 5.97538,32.43212 8.07659,42.59955 8.97358,43.42159 1.79702,1.64686 30.30082,13.01857 32.4942,12.9637 1.3377,-0.0335 8.23272,-4.29561 19.70828,-12.18262 9.70791,-6.67213 17.99854,-12.26459 18.42362,-12.42768 0.42508,-0.16309 7.68141,6.61885 16.12516,15.07098 l 15.35229,15.36752 -12.45401,18.18253 c -6.84971,10.0004 -12.45401,18.88958 -12.45401,19.75373 0,2.22555 12.86871,31.90881 14.49618,33.43723 0.89005,0.83588 7.38442,2.37241 19.12382,4.52458 9.77685,1.79238 19.42811,3.60674 21.44725,4.03191 l 3.67115,0.77303 V 358.291 c 0,12.07957 -0.28122,21.96286 -0.62493,21.96286 -2.09914,0 -42.30955,7.84601 -42.81844,8.3549 -1.49855,1.49855 -14.48835,35.36076 -14.07013,36.67844 0.24863,0.78336 5.39433,8.62182 11.43489,17.41881 6.04056,8.79699 11.27214,16.46758 11.62573,17.04576 0.45887,0.75031 -2.53499,4.2348 -10.45878,12.17276 -6.10594,6.11684 -11.32933,11.12153 -11.60756,11.12153 -0.27823,0 -0.72157,-0.85945 -0.98521,-1.90988 -0.26365,-1.05043 -1.22967,-2.31144 -2.14673,-2.80223 -0.91705,-0.49079 -7.72578,-1.691 -15.13049,-2.66714 -7.40473,-0.97614 -13.60008,-1.91174 -13.76746,-2.07912 -0.16738,-0.16738 -2.83192,-5.594 -5.92118,-12.05917 l -5.61686,-11.75485 0.62209,-13.16831 0.62209,-13.16831 6.98005,-10.19171 c 11.23545,-16.40511 14.92585,-19.44584 28.87371,-23.79065 4.25081,-1.32415 9.86321,-3.37474 12.47202,-4.55688 9.73737,-4.41232 19.14909,-12.34113 21.59336,-18.19109 1.59254,-3.81149 1.40203,-10.65511 -0.39466,-14.1769 -3.41262,-6.6893 -15.21834,-15.29214 -35.41003,-25.80336 -8.58273,-4.46791 -10.31212,-5.66554 -10.68061,-7.39647 -2.38092,-11.1838 -9.97732,-18.23608 -21.90652,-20.33737 -8.36028,-1.47264 -19.68072,2.26419 -29.31303,9.67608 -3.32417,2.55788 -6.07605,3.87804 -10.75918,5.16146 l -6.29259,1.72452 -3.83785,-1.651 c -9.2145,-3.96397 -21.34486,-5.05046 -31.01553,-2.77799 -17.08935,4.01577 -31.5626,18.30786 -35.92701,35.47732 -0.64401,2.53352 -1.17092,5.54781 -1.17092,6.69841 0,1.57061 -1.27539,3.31193 -5.11722,6.98671 -20.25322,19.37248 -36.31541,46.55427 -44.75804,75.74331 -3.5976,12.43814 -6.80757,29.46115 -6.33911,33.61736 0.50345,4.46655 3.53648,8.88886 8.29361,12.0925 3.60055,2.42475 3.77652,2.68833 2.51657,3.76948 -1.52527,1.30883 -8.45144,6.03689 -8.84347,6.03689 -0.13994,0 -7.17998,-6.93205 -15.64455,-15.40456 z"
       id="path252"
       transform="scale(0.26458333)" />
  </g>
  <g
     inkscape:groupmode="layer"
     id="layer3"
     inkscape:label="Grenouille_BG"
     transform="translate(-38.507369,-50.061025)">
    <g
       id="g2031"
       style="display:inline;stroke:#008000"
       transform="matrix(0.71656623,0,0,0.71656623,52.02855,71.56645)"
       inkscape:label="grenouille_Front">
      <path
         d="m 71.5,21.9 c 0.8,-0.3 1.2,-1.1 1,-1.9 -0.4,-1.2 -1.3,-2.3 -2.5,-2.8 -1.2,-0.6 -2.5,-0.7 -3.7,-0.3 -1.2,0.4 -2.3,1.3 -2.8,2.5 -0.6,1.2 -0.7,2.5 -0.3,3.7 0.2,0.6 0.8,1 1.4,1 0.2,0 0.3,0 0.5,-0.1 0.8,-0.3 1.2,-1.1 0.9,-1.9 -0.2,-0.5 -0.1,-1 0.1,-1.5 0.2,-0.5 0.6,-0.8 1.1,-1 0.5,-0.2 1,-0.1 1.5,0.1 0.5,0.2 0.8,0.6 1,1.1 0.2,1 1,1.4 1.8,1.1 z"
         id="path256"
         style="stroke:#008000" />
      <path
         d="M 93.4,29.7 C 90.5,25.8 80.4,20.9 76.9,19.3 77,16.7 75.7,12.8 70.1,11.3 64.5,9.8 58.8,14.6 57.4,15.9 37.1,21.2 11.7,35 5.8,70.5 5.7,71 5.7,71.4 5.6,71.7 c -0.3,1.4 0,2.8 0.8,3.9 1.5,2.2 4.7,3.4 6.8,3.9 -1,1.1 -1.7,2.4 -1.5,3.7 0.5,3 4.9,4 8.2,4.5 6.6,0.9 13.3,1.2 18.9,1.2 7.6,0 13.1,-0.5 13.2,-0.5 0.6,-0.1 1.1,-0.4 1.3,-1 0.2,-0.6 0.1,-1.2 -0.4,-1.6 l -3.6,-3.6 6,-3.7 c 0.6,-0.4 0.8,-1 0.7,-1.7 -0.2,-0.6 -0.8,-1.1 -1.4,-1.1 H 44.5 C 48.9,74.3 54.6,69 57.8,65.8 l -0.1,1.8 c 0,0.3 0,0.5 0.1,0.8 1.9,4 6.6,13.3 8.8,14.6 1.9,1.1 7.1,1.9 11,1.9 1.4,0 2.6,-0.1 3.5,-0.3 1.5,-0.4 2.2,-1.3 2.6,-2 0.9,-2 -0.1,-4.4 -0.2,-4.7 C 83.3,77.4 82.8,77.1 82.3,77 L 72.2,75.7 67.7,66.4 68.2,56 c 1.1,-1.3 2.1,-2.7 3,-4.1 2.3,-3.6 4.5,-7 9.7,-8.3 5.6,-1.4 11.8,-4.7 13.4,-8.9 0.5,-1.7 0.2,-3.5 -0.9,-5 z M 80.1,40.8 c -6.3,1.6 -9.1,5.8 -11.5,9.6 -1,1.5 -1.9,2.9 -3,4.2 -0.2,0.3 -0.4,0.6 -0.4,0.9 l -0.6,11.3 c 0,0.2 0,0.5 0.1,0.7 l 5,10.4 c 0.2,0.5 0.7,0.8 1.2,0.8 l 10,1.2 c 0.1,0.5 0.1,1 0,1.4 0,0.1 -0.1,0.3 -0.6,0.4 -2.7,0.7 -10.5,-0.2 -12.1,-1.3 -1.1,-0.8 -4.7,-7.3 -7.4,-13 l 1,-12.1 c 0.1,-0.8 -0.5,-1.5 -1.4,-1.6 -0.8,-0.1 -1.5,0.5 -1.6,1.4 l -0.5,6 c 0,0 -0.1,0.1 -0.1,0.1 -1.7,1.9 -5.4,5.6 -9,8.4 3.9,-7 2.5,-14.7 0.5,-19 C 49.5,50.3 49.3,50 48.9,49.9 29.5,41.7 20.7,58 20.6,58.1 c -0.4,0.7 -0.1,1.6 0.6,2 0.7,0.4 1.6,0.1 2,-0.6 0.3,-0.6 7.5,-13.7 24,-7.1 1.1,2.8 5.4,15.9 -9.2,23.5 -0.6,0.3 -0.9,1 -0.8,1.7 0.2,0.7 0.8,1.1 1.5,1.1 h 10.7 l -3.1,1.9 c -0.4,0.2 -0.6,0.6 -0.7,1.1 -0.1,0.5 0.1,0.9 0.4,1.2 l 2.6,2.6 c -5.4,0.3 -16.9,0.7 -28.1,-0.9 -5.4,-0.8 -5.7,-2 -5.7,-2 -0.1,-0.9 2.7,-3.1 5.7,-4.6 0.2,-0.1 0.3,-0.2 0.5,-0.3 l 7.8,-8.5 c 0.6,-0.6 0.5,-1.6 -0.1,-2.1 -0.6,-0.6 -1.6,-0.5 -2.1,0.1 L 19,75.5 C 18.3,75.8 17.4,76.3 16.3,77 16.2,77 16.1,76.9 15.9,76.9 14.4,76.7 10.3,75.7 9,73.7 8.6,73.2 8.5,72.7 8.7,72.1 8.8,71.8 8.8,71.4 8.9,70.8 14.5,36.8 39,23.7 58.5,18.7 c 0.3,-0.1 0.5,-0.2 0.7,-0.4 0.1,-0.1 5.5,-5.3 10.2,-4.1 5.4,1.4 4.5,5.5 4.5,5.7 -0.2,0.7 0.2,1.4 0.9,1.7 3.7,1.7 13.8,6.6 16.3,9.9 0.2,0.3 0.4,0.7 0.5,1 -0.1,0.3 -0.6,0.8 -1.7,1.3 -4.5,2 -14.2,1.9 -17.7,-0.9 -0.6,-0.5 -1.6,-0.4 -2.1,0.2 -0.5,0.6 -0.4,1.6 0.2,2.1 2.5,2 7,2.9 11.4,2.9 2.2,0 4.3,-0.2 6.2,-0.6 -2.2,1.4 -4.9,2.6 -7.8,3.3 z"
         id="path258"
         style="stroke:#008000" />
    </g>
    <path
       style="fill:#008000;stroke:#008000;stroke-width:3.38555;stroke-dasharray:none"
       d="m 271.27867,499.94612 c -17.85911,-1.3864 -32.07426,-4.24818 -32.07426,-6.45716 0,-1.09514 6.98423,-6.37491 12.75241,-9.64026 1.70033,-0.96255 7.9606,-7.08595 13.91173,-13.60755 9.52584,-10.439 10.84777,-12.21313 11.0504,-14.83053 0.32248,-4.16532 -1.95219,-6.02697 -6.94885,-5.68713 -0.71972,0.0489 -6.16711,5.39284 -12.10531,11.87532 -6.93715,7.57297 -12.05035,12.46373 -14.30355,13.68129 -3.3324,1.80073 -3.7105,1.84358 -7.60296,0.86169 -5.45211,-1.37531 -10.93417,-4.19034 -12.81375,-6.57984 -1.50127,-1.90856 -1.50411,-2.07399 -0.16347,-9.53805 9.71077,-54.0651 38.1805,-93.91642 85.00911,-118.99393 12.37962,-6.62949 28.47469,-12.91402 44.82667,-17.50317 2.69556,-0.7565 5.76699,-2.44338 8.39486,-4.61059 4.8581,-4.00648 10.79161,-7.06482 15.94879,-8.22057 4.32673,-0.96964 10.34187,0.41964 13.88547,3.20703 2.45791,1.9334 4.29463,5.80196 4.24477,8.94049 -0.0339,2.13433 -0.0451,2.12949 -1.51621,-0.6545 -5.52493,-10.45565 -20.41776,-11.05739 -26.03027,-1.05174 -3.50564,6.24964 -2.77556,13.62721 1.5539,15.70224 4.28214,2.05235 9.05843,-1.95267 7.88837,-6.61457 -0.63648,-2.53594 0.83363,-4.84477 3.08483,-4.84477 1.37067,0 2.43551,0.85575 3.84687,3.0915 1.66827,2.6427 2.34286,3.09149 4.64694,3.09149 3.098,0 5.74655,-2.18178 5.8639,-4.83046 0.0729,-1.64541 0.10484,-1.63501 0.59378,0.19322 0.4145,1.54995 2.8953,3.15535 12.54024,8.11518 15.71092,8.0792 26.27425,14.52272 31.13446,18.99171 3.37391,3.10231 3.78424,3.78117 2.91706,4.82605 -2.59384,3.12539 -16.35097,5.56932 -27.5543,4.89497 -8.97017,-0.53994 -14.49219,-1.88243 -19.27706,-4.68655 -4.2725,-2.50384 -6.92381,-2.53282 -9.35439,-0.10223 -7.24621,7.24621 6.55958,14.95772 29.31305,16.37341 9.52792,0.59281 9.6145,0.48357 -3.62092,4.56921 -11.87743,3.66644 -19.96254,10.20019 -28.16392,22.75987 -2.35939,3.61319 -5.9337,8.83009 -7.94293,11.59311 l -3.65312,5.02368 -0.90581,16.83582 -0.9058,16.83583 7.18442,15.13463 c 3.95142,8.32406 7.87999,15.58524 8.73015,16.13597 0.85016,0.55072 7.41304,1.71155 14.58417,2.5796 7.17113,0.86806 13.22853,1.7684 13.46088,2.00075 2.78132,2.78132 -17.46449,2.21889 -27.5097,-0.76423 -3.78137,-1.12294 -4.36829,-1.63251 -7.55612,-6.56039 -1.90096,-2.93859 -6.19562,-10.65773 -9.54369,-17.15364 l -6.08741,-11.81077 1.46861,-16.95053 c 1.31451,-15.17189 1.34628,-17.13724 0.30271,-18.72991 -2.06496,-3.15154 -7.98614,-3.36333 -9.60232,-0.34347 -0.42452,0.79322 -1.12464,5.39738 -1.55583,10.23146 l -0.78398,8.78923 -8.64468,8.30635 c -4.75457,4.56851 -8.74694,8.20411 -8.87193,8.07912 -0.12499,-0.12499 0.31218,-1.94999 0.97148,-4.05556 3.01215,-9.61983 1.99899,-27.41724 -2.15872,-37.92041 -1.56603,-3.95609 -2.25677,-4.7725 -5.27968,-6.24015 -10.44837,-5.07278 -28.86107,-7.12557 -40.56256,-4.52224 -9.09933,2.02441 -18.5252,7.13817 -25.83858,14.01808 -6.30424,5.93057 -12.43198,14.07434 -12.43198,16.52209 0,2.63443 3.01122,5.42628 5.85265,5.42628 2.99212,0 3.87021,-0.7608 8.70391,-7.54129 5.45343,-7.64984 14.69157,-14.04381 24.12013,-16.69424 9.37374,-2.63502 17.39273,-2.33147 28.93589,1.09532 l 5.72881,1.70069 1.58655,6.75785 c 2.82704,12.04161 1.826,22.27286 -3.15122,32.20754 -3.4591,6.90444 -9.03519,12.71557 -17.65514,18.39928 -4.16073,2.74346 -7.7803,5.54928 -8.0435,6.23515 -0.99227,2.58582 -0.43346,4.90826 1.55788,6.47465 1.85974,1.46287 3.08342,1.60362 14.10495,1.6224 11.65559,0.0199 11.99638,0.0653 9.95987,1.32816 -2.31747,1.43709 -3.88438,4.90078 -3.15827,6.98145 0.25543,0.73191 1.7025,2.63497 3.21574,4.22903 l 2.75133,2.89827 -22.37697,-0.10802 c -12.30734,-0.0594 -26.2027,-0.40502 -30.87858,-0.76801 z"
       id="path2073"
       transform="scale(0.26458333)" />
  </g>
  <g
     inkscape:groupmode="layer"
     id="layer1"
     inkscape:label="Grenouille"
     transform="translate(-38.507369,-50.061025)">
    <g
       id="g2065"
       style="display:inline"
       transform="matrix(0.71656623,0,0,0.71656623,52.02855,71.56645)"
       inkscape:label="grenouille_Front">
      <path
         d="m 71.5,21.9 c 0.8,-0.3 1.2,-1.1 1,-1.9 -0.4,-1.2 -1.3,-2.3 -2.5,-2.8 -1.2,-0.6 -2.5,-0.7 -3.7,-0.3 -1.2,0.4 -2.3,1.3 -2.8,2.5 -0.6,1.2 -0.7,2.5 -0.3,3.7 0.2,0.6 0.8,1 1.4,1 0.2,0 0.3,0 0.5,-0.1 0.8,-0.3 1.2,-1.1 0.9,-1.9 -0.2,-0.5 -0.1,-1 0.1,-1.5 0.2,-0.5 0.6,-0.8 1.1,-1 0.5,-0.2 1,-0.1 1.5,0.1 0.5,0.2 0.8,0.6 1,1.1 0.2,1 1,1.4 1.8,1.1 z"
         id="path2061" />
      <path
         d="M 93.4,29.7 C 90.5,25.8 80.4,20.9 76.9,19.3 77,16.7 75.7,12.8 70.1,11.3 64.5,9.8 58.8,14.6 57.4,15.9 37.1,21.2 11.7,35 5.8,70.5 5.7,71 5.7,71.4 5.6,71.7 c -0.3,1.4 0,2.8 0.8,3.9 1.5,2.2 4.7,3.4 6.8,3.9 -1,1.1 -1.7,2.4 -1.5,3.7 0.5,3 4.9,4 8.2,4.5 6.6,0.9 13.3,1.2 18.9,1.2 7.6,0 13.1,-0.5 13.2,-0.5 0.6,-0.1 1.1,-0.4 1.3,-1 0.2,-0.6 0.1,-1.2 -0.4,-1.6 l -3.6,-3.6 6,-3.7 c 0.6,-0.4 0.8,-1 0.7,-1.7 -0.2,-0.6 -0.8,-1.1 -1.4,-1.1 H 44.5 C 48.9,74.3 54.6,69 57.8,65.8 l -0.1,1.8 c 0,0.3 0,0.5 0.1,0.8 1.9,4 6.6,13.3 8.8,14.6 1.9,1.1 7.1,1.9 11,1.9 1.4,0 2.6,-0.1 3.5,-0.3 1.5,-0.4 2.2,-1.3 2.6,-2 0.9,-2 -0.1,-4.4 -0.2,-4.7 C 83.3,77.4 82.8,77.1 82.3,77 L 72.2,75.7 67.7,66.4 68.2,56 c 1.1,-1.3 2.1,-2.7 3,-4.1 2.3,-3.6 4.5,-7 9.7,-8.3 5.6,-1.4 11.8,-4.7 13.4,-8.9 0.5,-1.7 0.2,-3.5 -0.9,-5 z M 80.1,40.8 c -6.3,1.6 -9.1,5.8 -11.5,9.6 -1,1.5 -1.9,2.9 -3,4.2 -0.2,0.3 -0.4,0.6 -0.4,0.9 l -0.6,11.3 c 0,0.2 0,0.5 0.1,0.7 l 5,10.4 c 0.2,0.5 0.7,0.8 1.2,0.8 l 10,1.2 c 0.1,0.5 0.1,1 0,1.4 0,0.1 -0.1,0.3 -0.6,0.4 -2.7,0.7 -10.5,-0.2 -12.1,-1.3 -1.1,-0.8 -4.7,-7.3 -7.4,-13 l 1,-12.1 c 0.1,-0.8 -0.5,-1.5 -1.4,-1.6 -0.8,-0.1 -1.5,0.5 -1.6,1.4 l -0.5,6 c 0,0 -0.1,0.1 -0.1,0.1 -1.7,1.9 -5.4,5.6 -9,8.4 3.9,-7 2.5,-14.7 0.5,-19 C 49.5,50.3 49.3,50 48.9,49.9 29.5,41.7 20.7,58 20.6,58.1 c -0.4,0.7 -0.1,1.6 0.6,2 0.7,0.4 1.6,0.1 2,-0.6 0.3,-0.6 7.5,-13.7 24,-7.1 1.1,2.8 5.4,15.9 -9.2,23.5 -0.6,0.3 -0.9,1 -0.8,1.7 0.2,0.7 0.8,1.1 1.5,1.1 h 10.7 l -3.1,1.9 c -0.4,0.2 -0.6,0.6 -0.7,1.1 -0.1,0.5 0.1,0.9 0.4,1.2 l 2.6,2.6 c -5.4,0.3 -16.9,0.7 -28.1,-0.9 -5.4,-0.8 -5.7,-2 -5.7,-2 -0.1,-0.9 2.7,-3.1 5.7,-4.6 0.2,-0.1 0.3,-0.2 0.5,-0.3 l 7.8,-8.5 c 0.6,-0.6 0.5,-1.6 -0.1,-2.1 -0.6,-0.6 -1.6,-0.5 -2.1,0.1 L 19,75.5 C 18.3,75.8 17.4,76.3 16.3,77 16.2,77 16.1,76.9 15.9,76.9 14.4,76.7 10.3,75.7 9,73.7 8.6,73.2 8.5,72.7 8.7,72.1 8.8,71.8 8.8,71.4 8.9,70.8 14.5,36.8 39,23.7 58.5,18.7 c 0.3,-0.1 0.5,-0.2 0.7,-0.4 0.1,-0.1 5.5,-5.3 10.2,-4.1 5.4,1.4 4.5,5.5 4.5,5.7 -0.2,0.7 0.2,1.4 0.9,1.7 3.7,1.7 13.8,6.6 16.3,9.9 0.2,0.3 0.4,0.7 0.5,1 -0.1,0.3 -0.6,0.8 -1.7,1.3 -4.5,2 -14.2,1.9 -17.7,-0.9 -0.6,-0.5 -1.6,-0.4 -2.1,0.2 -0.5,0.6 -0.4,1.6 0.2,2.1 2.5,2 7,2.9 11.4,2.9 2.2,0 4.3,-0.2 6.2,-0.6 -2.2,1.4 -4.9,2.6 -7.8,3.3 z"
         id="path2063" />
    </g>
  </g>
  <g
     inkscape:groupmode="layer"
     id="layer2"
     inkscape:label="Name_Black"
     transform="translate(-38.507369,-50.061025)"
     style="display:none">
    <g
       id="SvgjsG6489"
       featureKey="nameFeature-0"
       transform="matrix(0.49098552,0,0,0.49098552,131.33214,95.063588)"
       fill="#000000"
       inkscape:label="Name"
       style="display:inline">
      <path
         d="m 9.24,40.16 c -3.76,0 -6.8,-3.04 -6.8,-6.8 V 16.6 c 0,-3.76 3.04,-6.8 6.8,-6.8 h 13.72 v 2.92 c 0,0.28 -0.24,0.52 -0.56,0.52 H 9.24 c -1.68,0 -3.04,1.36 -3.04,3.04 v 17.4 c 0,1.68 1.36,3.04 3.04,3.04 h 8.28 c 1.68,0 3.4,-1.36 3.4,-3.04 v -7.24 h -7.28 c -0.28,0 -0.52,-0.24 -0.52,-0.52 V 23 H 23.8 c 0.28,0 0.52,0.24 0.52,0.52 v 10.24 c 0,4.24 -3.04,6.4 -6.8,6.4 z M 35.24,20 h 4.64 v 2.88 c 0,0.24 -0.2,0.44 -0.44,0.44 h -5 c -1.08,0 -1.84,0.84 -1.92,1.8 V 40 h -3.04 c -0.24,0 -0.44,-0.2 -0.44,-0.44 V 20 h 3.04 c 0.24,0 0.44,0.16 0.44,0.4 v 0.88 C 33,20.6 34,20 35.24,20 Z m 13.8,20 C 45.8,40 43.2,37.4 43.2,34.16 V 25.68 C 43.2,21.96 45.8,20 49.04,20 h 5.36 c 3.24,0 5.84,1.96 5.84,5.68 v 4.6 c 0,0.68 -0.08,1.24 -1.04,1.24 H 48.24 c -0.64,0 -1.2,-0.28 -1.56,-0.76 v 3.56 c 0,1.32 1.04,2.36 2.36,2.36 h 9.92 c 0.24,0 0.44,0.2 0.44,0.44 V 40 Z m 5.48,-16.72 h -5.48 c -1.32,0 -2.36,0.76 -2.36,2.36 v 2.16 c 0,0.24 0.16,0.4 0.4,0.44 h 9.32 c 0.24,0 0.44,-0.2 0.44,-0.44 v -2.16 c 0,-1.6 -0.76,-2.36 -2.32,-2.36 z M 76.28,20 c 3.24,0 5.84,2.6 5.84,5.84 V 40 h -3.04 c -0.24,0 -0.44,-0.2 -0.44,-0.44 V 25.64 c 0,-1.28 -1.04,-2.36 -2.36,-2.36 h -7.24 c -0.24,0 -0.44,0.2 -0.44,0.44 V 39.56 C 68.6,39.8 68.4,40 68.16,40 H 65.12 V 22.6 c 0,-1.44 1.16,-2.6 2.6,-2.6 z m 21.8,20.28 H 92.8 c -3.24,0 -5.84,-2.6 -5.84,-5.84 v -8.88 c 0,-3.2 2.6,-5.84 5.84,-5.84 h 5.28 c 3.24,0 5.88,2.64 5.88,5.84 v 8.88 c 0,3.24 -2.64,5.84 -5.88,5.84 z M 92.8,23.04 c -1.32,0 -2.36,1.08 -2.36,2.36 v 9.2 c 0,1.32 1.04,2.4 2.36,2.4 h 5.28 c 1.32,0 2.4,-1.08 2.4,-2.4 v -9.2 c 0,-1.28 -1.08,-2.36 -2.4,-2.36 z m 16.04,-3.08 h 3.04 c 0.24,0 0.44,0.2 0.44,0.44 v 13.92 c 0,1.32 1.04,2.36 2.36,2.36 h 5.28 c 1.32,0 2.4,-1.04 2.4,-2.36 V 20.4 c 0,-0.24 0.2,-0.44 0.44,-0.44 h 3.04 v 14.2 c 0,3.24 -2.64,5.84 -5.88,5.84 h -5.28 c -3.24,0 -5.84,-2.6 -5.84,-5.84 z m 25,0.04 c 0.24,0 0.44,0.16 0.44,0.4 V 40 h -3.04 C 131,40 130.8,39.8 130.8,39.56 V 20 Z m 0,-8.96 c 0.24,0 0.44,0.2 0.44,0.44 v 3.28 h -3.04 c -0.24,0 -0.44,-0.2 -0.44,-0.44 V 11.04 Z M 142.36,10 c 0.24,0 0.44,0.2 0.44,0.44 V 40 h -3.04 c -0.24,0 -0.44,-0.2 -0.44,-0.44 V 10 Z m 8.48,0 c 0.24,0 0.44,0.2 0.44,0.44 V 40 h -3.04 C 148,40 147.8,39.8 147.8,39.56 V 10 Z m 11.28,30 c -3.24,0 -5.84,-2.6 -5.84,-5.84 v -8.48 c 0,-3.72 2.6,-5.68 5.84,-5.68 h 5.36 c 3.24,0 5.84,1.96 5.84,5.68 v 4.6 c 0,0.68 -0.08,1.24 -1.04,1.24 h -10.96 c -0.64,0 -1.2,-0.28 -1.56,-0.76 v 3.56 c 0,1.32 1.04,2.36 2.36,2.36 h 9.92 c 0.24,0 0.44,0.2 0.44,0.44 V 40 Z m 5.48,-16.72 h -5.48 c -1.32,0 -2.36,0.76 -2.36,2.36 v 2.16 c 0,0.24 0.16,0.4 0.4,0.44 h 9.32 c 0.24,0 0.44,-0.2 0.44,-0.44 v -2.16 c 0,-1.6 -0.76,-2.36 -2.32,-2.36 z M 178.76,40 c -0.32,0 -0.56,-0.28 -0.56,-0.56 v -3.2 h 3.16 c 0.32,0 0.56,0.28 0.56,0.6 V 40 Z M 185.72,9.96 H 207 v 2.92 c 0,0.28 -0.24,0.52 -0.52,0.52 h -8.56 v 26.08 c 0,0.28 -0.2,0.52 -0.52,0.52 h -3.24 V 13.4 h -8.96 v -2.92 c 0,-0.28 0.24,-0.52 0.52,-0.52 z M 211.84,40 C 208.6,40 206,37.4 206,34.16 v -8.48 c 0,-3.72 2.6,-5.68 5.84,-5.68 h 5.36 c 3.24,0 5.84,1.96 5.84,5.68 v 4.6 c 0,0.68 -0.08,1.24 -1.04,1.24 h -10.96 c -0.64,0 -1.2,-0.28 -1.56,-0.76 v 3.56 c 0,1.32 1.04,2.36 2.36,2.36 h 9.92 c 0.24,0 0.44,0.2 0.44,0.44 V 40 Z m 5.48,-16.72 h -5.48 c -1.32,0 -2.36,0.76 -2.36,2.36 v 2.16 c 0,0.24 0.16,0.4 0.4,0.44 h 9.32 c 0.24,0 0.44,-0.2 0.44,-0.44 v -2.16 c 0,-1.6 -0.76,-2.36 -2.32,-2.36 z m 16.12,0.04 c -1.32,0 -2.36,1.08 -2.36,2.4 v 8.6 c 0,1.32 1.04,2.36 2.36,2.36 h 7.08 c 0.24,0 0.44,0.2 0.44,0.44 V 40 h -7.52 c -3.2,0 -5.84,-2.6 -5.84,-5.84 v -8.28 c 0,-3.24 2.64,-5.84 5.84,-5.84 h 7.52 v 2.88 c 0,0.24 -0.2,0.4 -0.44,0.4 z m 12.08,16.24 V 10 h 3.04 c 0.24,0 0.44,0.2 0.44,0.44 V 21.28 C 249.48,20.6 250.48,20 251.72,20 h 5.08 c 3.2,0 5.56,1.84 5.56,5.6 V 40 h -3.04 c -0.24,0 -0.44,-0.2 -0.44,-0.44 V 25.68 c 0,-1.32 -1.04,-2.36 -2.36,-2.36 h -5.6 c -1.04,0.12 -1.84,0.96 -1.92,2.04 V 40 h -3.04 c -0.24,0 -0.44,-0.2 -0.44,-0.44 z"
         id="path263"
         style="display:inline" />
    </g>
  </g>
  <g
     inkscape:groupmode="layer"
     id="g268"
     inkscape:label="Name_Blue"
     transform="translate(-38.507369,-50.061025)"
     style="display:inline;fill:#00ffff">
    <g
       id="g266"
       featureKey="nameFeature-0"
       transform="matrix(0.49098552,0,0,0.49098552,131.33214,95.063588)"
       fill="#000000"
       inkscape:label="Name"
       style="display:inline;fill:#00ffff">
      <path
         d="m 9.24,40.16 c -3.76,0 -6.8,-3.04 -6.8,-6.8 V 16.6 c 0,-3.76 3.04,-6.8 6.8,-6.8 h 13.72 v 2.92 c 0,0.28 -0.24,0.52 -0.56,0.52 H 9.24 c -1.68,0 -3.04,1.36 -3.04,3.04 v 17.4 c 0,1.68 1.36,3.04 3.04,3.04 h 8.28 c 1.68,0 3.4,-1.36 3.4,-3.04 v -7.24 h -7.28 c -0.28,0 -0.52,-0.24 -0.52,-0.52 V 23 H 23.8 c 0.28,0 0.52,0.24 0.52,0.52 v 10.24 c 0,4.24 -3.04,6.4 -6.8,6.4 z M 35.24,20 h 4.64 v 2.88 c 0,0.24 -0.2,0.44 -0.44,0.44 h -5 c -1.08,0 -1.84,0.84 -1.92,1.8 V 40 h -3.04 c -0.24,0 -0.44,-0.2 -0.44,-0.44 V 20 h 3.04 c 0.24,0 0.44,0.16 0.44,0.4 v 0.88 C 33,20.6 34,20 35.24,20 Z m 13.8,20 C 45.8,40 43.2,37.4 43.2,34.16 V 25.68 C 43.2,21.96 45.8,20 49.04,20 h 5.36 c 3.24,0 5.84,1.96 5.84,5.68 v 4.6 c 0,0.68 -0.08,1.24 -1.04,1.24 H 48.24 c -0.64,0 -1.2,-0.28 -1.56,-0.76 v 3.56 c 0,1.32 1.04,2.36 2.36,2.36 h 9.92 c 0.24,0 0.44,0.2 0.44,0.44 V 40 Z m 5.48,-16.72 h -5.48 c -1.32,0 -2.36,0.76 -2.36,2.36 v 2.16 c 0,0.24 0.16,0.4 0.4,0.44 h 9.32 c 0.24,0 0.44,-0.2 0.44,-0.44 v -2.16 c 0,-1.6 -0.76,-2.36 -2.32,-2.36 z M 76.28,20 c 3.24,0 5.84,2.6 5.84,5.84 V 40 h -3.04 c -0.24,0 -0.44,-0.2 -0.44,-0.44 V 25.64 c 0,-1.28 -1.04,-2.36 -2.36,-2.36 h -7.24 c -0.24,0 -0.44,0.2 -0.44,0.44 V 39.56 C 68.6,39.8 68.4,40 68.16,40 H 65.12 V 22.6 c 0,-1.44 1.16,-2.6 2.6,-2.6 z m 21.8,20.28 H 92.8 c -3.24,0 -5.84,-2.6 -5.84,-5.84 v -8.88 c 0,-3.2 2.6,-5.84 5.84,-5.84 h 5.28 c 3.24,0 5.88,2.64 5.88,5.84 v 8.88 c 0,3.24 -2.64,5.84 -5.88,5.84 z M 92.8,23.04 c -1.32,0 -2.36,1.08 -2.36,2.36 v 9.2 c 0,1.32 1.04,2.4 2.36,2.4 h 5.28 c 1.32,0 2.4,-1.08 2.4,-2.4 v -9.2 c 0,-1.28 -1.08,-2.36 -2.4,-2.36 z m 16.04,-3.08 h 3.04 c 0.24,0 0.44,0.2 0.44,0.44 v 13.92 c 0,1.32 1.04,2.36 2.36,2.36 h 5.28 c 1.32,0 2.4,-1.04 2.4,-2.36 V 20.4 c 0,-0.24 0.2,-0.44 0.44,-0.44 h 3.04 v 14.2 c 0,3.24 -2.64,5.84 -5.88,5.84 h -5.28 c -3.24,0 -5.84,-2.6 -5.84,-5.84 z m 25,0.04 c 0.24,0 0.44,0.16 0.44,0.4 V 40 h -3.04 C 131,40 130.8,39.8 130.8,39.56 V 20 Z m 0,-8.96 c 0.24,0 0.44,0.2 0.44,0.44 v 3.28 h -3.04 c -0.24,0 -0.44,-0.2 -0.44,-0.44 V 11.04 Z M 142.36,10 c 0.24,0 0.44,0.2 0.44,0.44 V 40 h -3.04 c -0.24,0 -0.44,-0.2 -0.44,-0.44 V 10 Z m 8.48,0 c 0.24,0 0.44,0.2 0.44,0.44 V 40 h -3.04 C 148,40 147.8,39.8 147.8,39.56 V 10 Z m 11.28,30 c -3.24,0 -5.84,-2.6 -5.84,-5.84 v -8.48 c 0,-3.72 2.6,-5.68 5.84,-5.68 h 5.36 c 3.24,0 5.84,1.96 5.84,5.68 v 4.6 c 0,0.68 -0.08,1.24 -1.04,1.24 h -10.96 c -0.64,0 -1.2,-0.28 -1.56,-0.76 v 3.56 c 0,1.32 1.04,2.36 2.36,2.36 h 9.92 c 0.24,0 0.44,0.2 0.44,0.44 V 40 Z m 5.48,-16.72 h -5.48 c -1.32,0 -2.36,0.76 -2.36,2.36 v 2.16 c 0,0.24 0.16,0.4 0.4,0.44 h 9.32 c 0.24,0 0.44,-0.2 0.44,-0.44 v -2.16 c 0,-1.6 -0.76,-2.36 -2.32,-2.36 z M 178.76,40 c -0.32,0 -0.56,-0.28 -0.56,-0.56 v -3.2 h 3.16 c 0.32,0 0.56,0.28 0.56,0.6 V 40 Z M 185.72,9.96 H 207 v 2.92 c 0,0.28 -0.24,0.52 -0.52,0.52 h -8.56 v 26.08 c 0,0.28 -0.2,0.52 -0.52,0.52 h -3.24 V 13.4 h -8.96 v -2.92 c 0,-0.28 0.24,-0.52 0.52,-0.52 z M 211.84,40 C 208.6,40 206,37.4 206,34.16 v -8.48 c 0,-3.72 2.6,-5.68 5.84,-5.68 h 5.36 c 3.24,0 5.84,1.96 5.84,5.68 v 4.6 c 0,0.68 -0.08,1.24 -1.04,1.24 h -10.96 c -0.64,0 -1.2,-0.28 -1.56,-0.76 v 3.56 c 0,1.32 1.04,2.36 2.36,2.36 h 9.92 c 0.24,0 0.44,0.2 0.44,0.44 V 40 Z m 5.48,-16.72 h -5.48 c -1.32,0 -2.36,0.76 -2.36,2.36 v 2.16 c 0,0.24 0.16,0.4 0.4,0.44 h 9.32 c 0.24,0 0.44,-0.2 0.44,-0.44 v -2.16 c 0,-1.6 -0.76,-2.36 -2.32,-2.36 z m 16.12,0.04 c -1.32,0 -2.36,1.08 -2.36,2.4 v 8.6 c 0,1.32 1.04,2.36 2.36,2.36 h 7.08 c 0.24,0 0.44,0.2 0.44,0.44 V 40 h -7.52 c -3.2,0 -5.84,-2.6 -5.84,-5.84 v -8.28 c 0,-3.24 2.64,-5.84 5.84,-5.84 h 7.52 v 2.88 c 0,0.24 -0.2,0.4 -0.44,0.4 z m 12.08,16.24 V 10 h 3.04 c 0.24,0 0.44,0.2 0.44,0.44 V 21.28 C 249.48,20.6 250.48,20 251.72,20 h 5.08 c 3.2,0 5.56,1.84 5.56,5.6 V 40 h -3.04 c -0.24,0 -0.44,-0.2 -0.44,-0.44 V 25.68 c 0,-1.32 -1.04,-2.36 -2.36,-2.36 h -5.6 c -1.04,0.12 -1.84,0.96 -1.92,2.04 V 40 h -3.04 c -0.24,0 -0.44,-0.2 -0.44,-0.44 z"
         id="path264"
         style="display:inline;fill:#00ffff" />
    </g>
  </g>
  <g
     inkscape:groupmode="layer"
     id="g261"
     inkscape:label="Name_Green"
     transform="translate(-38.507369,-50.061025)"
     style="display:none;fill:#00ff00">
    <g
       id="g259"
       featureKey="nameFeature-0"
       transform="matrix(0.49098552,0,0,0.49098552,131.33214,95.063588)"
       fill="#000000"
       inkscape:label="Name"
       style="display:inline;fill:#00ff00">
      <path
         d="m 9.24,40.16 c -3.76,0 -6.8,-3.04 -6.8,-6.8 V 16.6 c 0,-3.76 3.04,-6.8 6.8,-6.8 h 13.72 v 2.92 c 0,0.28 -0.24,0.52 -0.56,0.52 H 9.24 c -1.68,0 -3.04,1.36 -3.04,3.04 v 17.4 c 0,1.68 1.36,3.04 3.04,3.04 h 8.28 c 1.68,0 3.4,-1.36 3.4,-3.04 v -7.24 h -7.28 c -0.28,0 -0.52,-0.24 -0.52,-0.52 V 23 H 23.8 c 0.28,0 0.52,0.24 0.52,0.52 v 10.24 c 0,4.24 -3.04,6.4 -6.8,6.4 z M 35.24,20 h 4.64 v 2.88 c 0,0.24 -0.2,0.44 -0.44,0.44 h -5 c -1.08,0 -1.84,0.84 -1.92,1.8 V 40 h -3.04 c -0.24,0 -0.44,-0.2 -0.44,-0.44 V 20 h 3.04 c 0.24,0 0.44,0.16 0.44,0.4 v 0.88 C 33,20.6 34,20 35.24,20 Z m 13.8,20 C 45.8,40 43.2,37.4 43.2,34.16 V 25.68 C 43.2,21.96 45.8,20 49.04,20 h 5.36 c 3.24,0 5.84,1.96 5.84,5.68 v 4.6 c 0,0.68 -0.08,1.24 -1.04,1.24 H 48.24 c -0.64,0 -1.2,-0.28 -1.56,-0.76 v 3.56 c 0,1.32 1.04,2.36 2.36,2.36 h 9.92 c 0.24,0 0.44,0.2 0.44,0.44 V 40 Z m 5.48,-16.72 h -5.48 c -1.32,0 -2.36,0.76 -2.36,2.36 v 2.16 c 0,0.24 0.16,0.4 0.4,0.44 h 9.32 c 0.24,0 0.44,-0.2 0.44,-0.44 v -2.16 c 0,-1.6 -0.76,-2.36 -2.32,-2.36 z M 76.28,20 c 3.24,0 5.84,2.6 5.84,5.84 V 40 h -3.04 c -0.24,0 -0.44,-0.2 -0.44,-0.44 V 25.64 c 0,-1.28 -1.04,-2.36 -2.36,-2.36 h -7.24 c -0.24,0 -0.44,0.2 -0.44,0.44 V 39.56 C 68.6,39.8 68.4,40 68.16,40 H 65.12 V 22.6 c 0,-1.44 1.16,-2.6 2.6,-2.6 z m 21.8,20.28 H 92.8 c -3.24,0 -5.84,-2.6 -5.84,-5.84 v -8.88 c 0,-3.2 2.6,-5.84 5.84,-5.84 h 5.28 c 3.24,0 5.88,2.64 5.88,5.84 v 8.88 c 0,3.24 -2.64,5.84 -5.88,5.84 z M 92.8,23.04 c -1.32,0 -2.36,1.08 -2.36,2.36 v 9.2 c 0,1.32 1.04,2.4 2.36,2.4 h 5.28 c 1.32,0 2.4,-1.08 2.4,-2.4 v -9.2 c 0,-1.28 -1.08,-2.36 -2.4,-2.36 z m 16.04,-3.08 h 3.04 c 0.24,0 0.44,0.2 0.44,0.44 v 13.92 c 0,1.32 1.04,2.36 2.36,2.36 h 5.28 c 1.32,0 2.4,-1.04 2.4,-2.36 V 20.4 c 0,-0.24 0.2,-0.44 0.44,-0.44 h 3.04 v 14.2 c 0,3.24 -2.64,5.84 -5.88,5.84 h -5.28 c -3.24,0 -5.84,-2.6 -5.84,-5.84 z m 25,0.04 c 0.24,0 0.44,0.16 0.44,0.4 V 40 h -3.04 C 131,40 130.8,39.8 130.8,39.56 V 20 Z m 0,-8.96 c 0.24,0 0.44,0.2 0.44,0.44 v 3.28 h -3.04 c -0.24,0 -0.44,-0.2 -0.44,-0.44 V 11.04 Z M 142.36,10 c 0.24,0 0.44,0.2 0.44,0.44 V 40 h -3.04 c -0.24,0 -0.44,-0.2 -0.44,-0.44 V 10 Z m 8.48,0 c 0.24,0 0.44,0.2 0.44,0.44 V 40 h -3.04 C 148,40 147.8,39.8 147.8,39.56 V 10 Z m 11.28,30 c -3.24,0 -5.84,-2.6 -5.84,-5.84 v -8.48 c 0,-3.72 2.6,-5.68 5.84,-5.68 h 5.36 c 3.24,0 5.84,1.96 5.84,5.68 v 4.6 c 0,0.68 -0.08,1.24 -1.04,1.24 h -10.96 c -0.64,0 -1.2,-0.28 -1.56,-0.76 v 3.56 c 0,1.32 1.04,2.36 2.36,2.36 h 9.92 c 0.24,0 0.44,0.2 0.44,0.44 V 40 Z m 5.48,-16.72 h -5.48 c -1.32,0 -2.36,0.76 -2.36,2.36 v 2.16 c 0,0.24 0.16,0.4 0.4,0.44 h 9.32 c 0.24,0 0.44,-0.2 0.44,-0.44 v -2.16 c 0,-1.6 -0.76,-2.36 -2.32,-2.36 z M 178.76,40 c -0.32,0 -0.56,-0.28 -0.56,-0.56 v -3.2 h 3.16 c 0.32,0 0.56,0.28 0.56,0.6 V 40 Z M 185.72,9.96 H 207 v 2.92 c 0,0.28 -0.24,0.52 -0.52,0.52 h -8.56 v 26.08 c 0,0.28 -0.2,0.52 -0.52,0.52 h -3.24 V 13.4 h -8.96 v -2.92 c 0,-0.28 0.24,-0.52 0.52,-0.52 z M 211.84,40 C 208.6,40 206,37.4 206,34.16 v -8.48 c 0,-3.72 2.6,-5.68 5.84,-5.68 h 5.36 c 3.24,0 5.84,1.96 5.84,5.68 v 4.6 c 0,0.68 -0.08,1.24 -1.04,1.24 h -10.96 c -0.64,0 -1.2,-0.28 -1.56,-0.76 v 3.56 c 0,1.32 1.04,2.36 2.36,2.36 h 9.92 c 0.24,0 0.44,0.2 0.44,0.44 V 40 Z m 5.48,-16.72 h -5.48 c -1.32,0 -2.36,0.76 -2.36,2.36 v 2.16 c 0,0.24 0.16,0.4 0.4,0.44 h 9.32 c 0.24,0 0.44,-0.2 0.44,-0.44 v -2.16 c 0,-1.6 -0.76,-2.36 -2.32,-2.36 z m 16.12,0.04 c -1.32,0 -2.36,1.08 -2.36,2.4 v 8.6 c 0,1.32 1.04,2.36 2.36,2.36 h 7.08 c 0.24,0 0.44,0.2 0.44,0.44 V 40 h -7.52 c -3.2,0 -5.84,-2.6 -5.84,-5.84 v -8.28 c 0,-3.24 2.64,-5.84 5.84,-5.84 h 7.52 v 2.88 c 0,0.24 -0.2,0.4 -0.44,0.4 z m 12.08,16.24 V 10 h 3.04 c 0.24,0 0.44,0.2 0.44,0.44 V 21.28 C 249.48,20.6 250.48,20 251.72,20 h 5.08 c 3.2,0 5.56,1.84 5.56,5.6 V 40 h -3.04 c -0.24,0 -0.44,-0.2 -0.44,-0.44 V 25.68 c 0,-1.32 -1.04,-2.36 -2.36,-2.36 h -5.6 c -1.04,0.12 -1.84,0.96 -1.92,2.04 V 40 h -3.04 c -0.24,0 -0.44,-0.2 -0.44,-0.44 z"
         id="path257"
         style="display:inline;fill:#00ff00" />
    </g>
  </g>
</svg>
