<?xml version="1.0" encoding="us-ascii" standalone="no"?><svg xmlns="http://www.w3.org/2000/svg" xmlns:xlink="http://www.w3.org/1999/xlink" contentStyleType="text/css" height="783px" preserveAspectRatio="none" style="width:1514px;height:783px;background:#FFFFFF;" version="1.1" viewBox="0 0 1514 783" width="1514px" zoomAndPan="magnify"><defs/><g><text fill="#000000" font-family="sans-serif" font-size="14" font-weight="bold" lengthAdjust="spacing" textLength="134" x="688.5" y="32.9951">TMUX commands</text><rect fill="#F1F1F1" height="36.2969" rx="12.5" ry="12.5" style="stroke:#181818;stroke-width:1.5;" width="59" x="698" y="391.375"/><text fill="#000000" font-family="sans-serif" font-size="14" font-weight="bold" lengthAdjust="spacing" textLength="39" x="708" y="414.3701">tmux</text><rect fill="#F1F1F1" height="52.5938" rx="12.5" ry="12.5" style="stroke:#ADD8E6;stroke-width:3.0;" width="220" x="807" y="383.2266"/><text fill="#000000" font-family="sans-serif" font-size="14" font-weight="bold" lengthAdjust="spacing" textLength="129" x="817" y="406.2217">Pane commands</text><text fill="#000000" font-family="monospace" font-size="14" lengthAdjust="spacing" textLength="200" x="817" y="422.5186">(&#160;[Ctrl]+[b]&#160;==&gt;&#160;[char]&#160;)</text><rect fill="#F1F1F1" height="36.2969" rx="12.5" ry="12.5" style="stroke:#ADD8E6;stroke-width:3.0;" width="209" x="1077" y="101.7422"/><text fill="#000000" font-family="sans-serif" font-size="14" font-weight="bold" lengthAdjust="spacing" textLength="14" x="1087" y="124.7373">%</text><text fill="#000000" font-family="sans-serif" font-size="14" lengthAdjust="spacing" textLength="171" x="1101" y="124.7373">: Create a horizontal split</text><path d="M1027,409.5234 L1037,409.5234 C1052,409.5234 1052,119.8906 1067,119.8906 L1077,119.8906 " fill="none" style="stroke:#ADD8E6;stroke-width:3.0;"/><rect fill="#F1F1F1" height="36.2969" rx="12.5" ry="12.5" style="stroke:#ADD8E6;stroke-width:3.0;" width="183" x="1077" y="158.0391"/><text fill="#000000" font-family="sans-serif" font-size="14" font-weight="bold" lengthAdjust="spacing" textLength="8" x="1087" y="181.0342">''</text><text fill="#000000" font-family="sans-serif" font-size="14" lengthAdjust="spacing" textLength="151" x="1095" y="181.0342">: Create a vertical split</text><path d="M1027,409.5234 L1037,409.5234 C1052,409.5234 1052,176.1875 1067,176.1875 L1077,176.1875 " fill="none" style="stroke:#ADD8E6;stroke-width:3.0;"/><rect fill="#F1F1F1" height="36.2969" rx="12.5" ry="12.5" style="stroke:#ADD8E6;stroke-width:3.0;" width="354" x="1077" y="214.3359"/><text fill="#000000" font-family="sans-serif" font-size="14" font-weight="bold" lengthAdjust="spacing" textLength="122" x="1087" y="237.3311">h or Left Arrow</text><text fill="#000000" font-family="sans-serif" font-size="14" lengthAdjust="spacing" textLength="208" x="1209" y="237.3311">: Move to the pane on the Left</text><path d="M1027,409.5234 L1037,409.5234 C1052,409.5234 1052,232.4844 1067,232.4844 L1077,232.4844 " fill="none" style="stroke:#ADD8E6;stroke-width:3.0;"/><rect fill="#F1F1F1" height="36.2969" rx="12.5" ry="12.5" style="stroke:#ADD8E6;stroke-width:3.0;" width="368" x="1077" y="270.6328"/><text fill="#000000" font-family="sans-serif" font-size="14" font-weight="bold" lengthAdjust="spacing" textLength="125" x="1087" y="293.6279">i or Right Arrow</text><text fill="#000000" font-family="sans-serif" font-size="14" lengthAdjust="spacing" textLength="219" x="1212" y="293.6279">: Move to the pane on the Right</text><path d="M1027,409.5234 L1037,409.5234 C1052,409.5234 1052,288.7813 1067,288.7813 L1077,288.7813 " fill="none" style="stroke:#ADD8E6;stroke-width:3.0;"/><rect fill="#F1F1F1" height="36.2969" rx="12.5" ry="12.5" style="stroke:#ADD8E6;stroke-width:3.0;" width="330" x="1077" y="326.9297"/><text fill="#000000" font-family="sans-serif" font-size="14" font-weight="bold" lengthAdjust="spacing" textLength="130" x="1087" y="349.9248">j or Down Arrow</text><text fill="#000000" font-family="sans-serif" font-size="14" lengthAdjust="spacing" textLength="176" x="1217" y="349.9248">: Move to the pane Below</text><path d="M1027,409.5234 L1037,409.5234 C1052,409.5234 1052,345.0781 1067,345.0781 L1077,345.0781 " fill="none" style="stroke:#ADD8E6;stroke-width:3.0;"/><rect fill="#F1F1F1" height="36.2969" rx="12.5" ry="12.5" style="stroke:#ADD8E6;stroke-width:3.0;" width="312" x="1077" y="383.2266"/><text fill="#000000" font-family="sans-serif" font-size="14" font-weight="bold" lengthAdjust="spacing" textLength="111" x="1087" y="406.2217">k or Up Arrow</text><text fill="#000000" font-family="sans-serif" font-size="14" lengthAdjust="spacing" textLength="177" x="1198" y="406.2217">: Move to the pane Above</text><path d="M1027,409.5234 L1037,409.5234 C1052,409.5234 1052,401.375 1067,401.375 L1077,401.375 " fill="none" style="stroke:#ADD8E6;stroke-width:3.0;"/><rect fill="#F1F1F1" height="36.2969" rx="12.5" ry="12.5" style="stroke:#ADD8E6;stroke-width:3.0;" width="230" x="1077" y="439.5234"/><text fill="#000000" font-family="sans-serif" font-size="14" font-weight="bold" lengthAdjust="spacing" textLength="10" x="1087" y="462.5186">q</text><text fill="#000000" font-family="sans-serif" font-size="14" lengthAdjust="spacing" textLength="196" x="1097" y="462.5186">: Briefly show pane numbers</text><path d="M1027,409.5234 L1037,409.5234 C1052,409.5234 1052,457.6719 1067,457.6719 L1077,457.6719 " fill="none" style="stroke:#ADD8E6;stroke-width:3.0;"/><rect fill="#F1F1F1" height="52.5938" rx="12.5" ry="12.5" style="stroke:#ADD8E6;stroke-width:3.0;" width="363" x="1077" y="495.8203"/><text fill="#000000" font-family="sans-serif" font-size="14" font-weight="bold" lengthAdjust="spacing" textLength="10" x="1087" y="518.8154">o</text><text fill="#000000" font-family="sans-serif" font-size="14" lengthAdjust="spacing" textLength="204" x="1097" y="518.8154">: Move trough panes in order.</text><text fill="#000000" font-family="sans-serif" font-size="14" lengthAdjust="spacing" textLength="339" x="1087" y="535.1123">Each press takes you to the next, until all of them</text><path d="M1027,409.5234 L1037,409.5234 C1052,409.5234 1052,522.1172 1067,522.1172 L1077,522.1172 " fill="none" style="stroke:#ADD8E6;stroke-width:3.0;"/><rect fill="#F1F1F1" height="36.2969" rx="12.5" ry="12.5" style="stroke:#ADD8E6;stroke-width:3.0;" width="396" x="1077" y="568.4141"/><text fill="#000000" font-family="sans-serif" font-size="14" font-weight="bold" lengthAdjust="spacing" textLength="10" x="1087" y="591.4092">}</text><text fill="#000000" font-family="sans-serif" font-size="14" lengthAdjust="spacing" textLength="362" x="1097" y="591.4092">: Swap the position of the current pane with the next</text><path d="M1027,409.5234 L1037,409.5234 C1052,409.5234 1052,586.5625 1067,586.5625 L1077,586.5625 " fill="none" style="stroke:#ADD8E6;stroke-width:3.0;"/><rect fill="#F1F1F1" height="36.2969" rx="12.5" ry="12.5" style="stroke:#ADD8E6;stroke-width:3.0;" width="425" x="1077" y="624.7109"/><text fill="#000000" font-family="sans-serif" font-size="14" font-weight="bold" lengthAdjust="spacing" textLength="10" x="1087" y="647.7061">{</text><text fill="#000000" font-family="sans-serif" font-size="14" lengthAdjust="spacing" textLength="391" x="1097" y="647.7061">: Swap the position of the current pane with the previous</text><path d="M1027,409.5234 L1037,409.5234 C1052,409.5234 1052,642.8594 1067,642.8594 L1077,642.8594 " fill="none" style="stroke:#ADD8E6;stroke-width:3.0;"/><rect fill="#F1F1F1" height="36.2969" rx="12.5" ry="12.5" style="stroke:#ADD8E6;stroke-width:3.0;" width="201" x="1077" y="681.0078"/><text fill="#000000" font-family="sans-serif" font-size="14" font-weight="bold" lengthAdjust="spacing" textLength="9" x="1087" y="704.0029">x</text><text fill="#000000" font-family="sans-serif" font-size="14" lengthAdjust="spacing" textLength="168" x="1096" y="704.0029">: Close the current pane</text><path d="M1027,409.5234 L1037,409.5234 C1052,409.5234 1052,699.1563 1067,699.1563 L1077,699.1563 " fill="none" style="stroke:#ADD8E6;stroke-width:3.0;"/><path d="M757,409.5234 L767,409.5234 C782,409.5234 782,409.5234 797,409.5234 L807,409.5234 " fill="none" style="stroke:#181818;stroke-width:1.0;"/><rect fill="#F1F1F1" height="52.5938" rx="12.5" ry="12.5" style="stroke:#EB937F;stroke-width:3.0;" width="212" x="436" y="129.8906"/><text fill="#000000" font-family="sans-serif" font-size="14" font-weight="bold" lengthAdjust="spacing" textLength="158" x="446" y="152.8857">Terminal commands</text><text fill="#000000" font-family="monospace" font-size="14" lengthAdjust="spacing" textLength="192" x="446" y="169.1826">(&#160;avant&#160;de&#160;lancer&#160;tmux&#160;)</text><rect fill="#F1F1F1" height="52.5938" rx="12.5" ry="12.5" style="stroke:#EB937F;stroke-width:3.0;" width="192" x="194" y="57.2969"/><text fill="#000000" font-family="sans-serif" font-size="14" font-weight="bold" lengthAdjust="spacing" textLength="172" x="204" y="80.292">Create a new session</text><text fill="#000000" font-family="monospace" font-size="14" lengthAdjust="spacing" textLength="64" x="236" y="96.5889">:~$&#160;tmux</text><path d="M436,156.1875 L426,156.1875 C411,156.1875 411,83.5938 396,83.5938 L386,83.5938 " fill="none" style="stroke:#EB937F;stroke-width:3.0;"/><rect fill="#F1F1F1" height="52.5938" rx="12.5" ry="12.5" style="stroke:#EB937F;stroke-width:3.0;" width="167" x="219" y="129.8906"/><text fill="#000000" font-family="sans-serif" font-size="14" font-weight="bold" lengthAdjust="spacing" textLength="147" x="229" y="152.8857">List all the session</text><text fill="#000000" font-family="monospace" font-size="14" lengthAdjust="spacing" textLength="88" x="261" y="169.1826">:~$&#160;tmux&#160;ls</text><path d="M436,156.1875 L426,156.1875 C411,156.1875 411,156.1875 396,156.1875 L386,156.1875 " fill="none" style="stroke:#EB937F;stroke-width:3.0;"/><rect fill="#F1F1F1" height="52.5938" rx="12.5" ry="12.5" style="stroke:#EB937F;stroke-width:3.0;" width="356" x="30" y="202.4844"/><text fill="#000000" font-family="sans-serif" font-size="14" font-weight="bold" lengthAdjust="spacing" textLength="252" x="40" y="225.4795">Attach a session to the terminal</text><text fill="#000000" font-family="monospace" font-size="14" lengthAdjust="spacing" textLength="304" x="72" y="241.7764">:~$&#160;tmux&#160;attach&#160;-t&#160;[Number_of_session]</text><path d="M436,156.1875 L426,156.1875 C411,156.1875 411,228.7813 396,228.7813 L386,228.7813 " fill="none" style="stroke:#EB937F;stroke-width:3.0;"/><path d="M698,409.5234 L688,409.5234 C673,409.5234 673,156.1875 658,156.1875 L648,156.1875 " fill="none" style="stroke:#181818;stroke-width:1.0;"/><rect fill="#F1F1F1" height="52.5938" rx="12.5" ry="12.5" style="stroke:#90EE90;stroke-width:3.0;" width="220" x="428" y="323.2266"/><text fill="#000000" font-family="sans-serif" font-size="14" font-weight="bold" lengthAdjust="spacing" textLength="161" x="438" y="346.2217">Sessions commands</text><text fill="#000000" font-family="monospace" font-size="14" lengthAdjust="spacing" textLength="200" x="438" y="362.5186">(&#160;[Ctrl]+[b]&#160;==&gt;&#160;[char]&#160;)</text><rect fill="#F1F1F1" height="36.2969" rx="12.5" ry="12.5" style="stroke:#90EE90;stroke-width:3.0;" width="131" x="247" y="275.0781"/><text fill="#000000" font-family="sans-serif" font-size="14" font-weight="bold" lengthAdjust="spacing" textLength="9" x="257" y="298.0732">s</text><text fill="#000000" font-family="sans-serif" font-size="14" lengthAdjust="spacing" textLength="98" x="266" y="298.0732">: List sessions</text><path d="M428,349.5234 L418,349.5234 C403,349.5234 403,293.2266 388,293.2266 L378,293.2266 " fill="none" style="stroke:#90EE90;stroke-width:3.0;"/><rect fill="#F1F1F1" height="36.2969" rx="12.5" ry="12.5" style="stroke:#90EE90;stroke-width:3.0;" width="213" x="165" y="331.375"/><text fill="#000000" font-family="sans-serif" font-size="14" font-weight="bold" lengthAdjust="spacing" textLength="10" x="175" y="354.3701">$</text><text fill="#000000" font-family="sans-serif" font-size="14" lengthAdjust="spacing" textLength="179" x="185" y="354.3701">: Rename current session</text><path d="M428,349.5234 L418,349.5234 C403,349.5234 403,349.5234 388,349.5234 L378,349.5234 " fill="none" style="stroke:#90EE90;stroke-width:3.0;"/><rect fill="#F1F1F1" height="36.2969" rx="12.5" ry="12.5" style="stroke:#90EE90;stroke-width:3.0;" width="205" x="173" y="387.6719"/><text fill="#000000" font-family="sans-serif" font-size="14" font-weight="bold" lengthAdjust="spacing" textLength="10" x="183" y="410.667">d</text><text fill="#000000" font-family="sans-serif" font-size="14" lengthAdjust="spacing" textLength="171" x="193" y="410.667">: Detach current session</text><path d="M428,349.5234 L418,349.5234 C403,349.5234 403,405.8203 388,405.8203 L378,405.8203 " fill="none" style="stroke:#90EE90;stroke-width:3.0;"/><path d="M698,409.5234 L688,409.5234 C673,409.5234 673,349.5234 658,349.5234 L648,349.5234 " fill="none" style="stroke:#181818;stroke-width:1.0;"/><rect fill="#F1F1F1" height="52.5938" rx="12.5" ry="12.5" style="stroke:#FFBBCC;stroke-width:3.0;" width="220" x="428" y="576.5625"/><text fill="#000000" font-family="sans-serif" font-size="14" font-weight="bold" lengthAdjust="spacing" textLength="153" x="438" y="599.5576">Window commands</text><text fill="#000000" font-family="monospace" font-size="14" lengthAdjust="spacing" textLength="200" x="438" y="615.8545">(&#160;[Ctrl]+[b]&#160;==&gt;&#160;[char]&#160;)</text><rect fill="#F1F1F1" height="36.2969" rx="12.5" ry="12.5" style="stroke:#FFBBCC;stroke-width:3.0;" width="189" x="189" y="443.9688"/><text fill="#000000" font-family="sans-serif" font-size="14" font-weight="bold" lengthAdjust="spacing" textLength="9" x="199" y="466.9639">c</text><text fill="#000000" font-family="sans-serif" font-size="14" lengthAdjust="spacing" textLength="156" x="208" y="466.9639">: Create a new window</text><path d="M428,602.8594 L418,602.8594 C403,602.8594 403,462.1172 388,462.1172 L378,462.1172 " fill="none" style="stroke:#FFBBCC;stroke-width:3.0;"/><rect fill="#F1F1F1" height="36.2969" rx="12.5" ry="12.5" style="stroke:#FFBBCC;stroke-width:3.0;" width="228" x="150" y="500.2656"/><text fill="#000000" font-family="sans-serif" font-size="14" font-weight="bold" lengthAdjust="spacing" textLength="5" x="160" y="523.2607">,</text><text fill="#000000" font-family="sans-serif" font-size="14" lengthAdjust="spacing" textLength="199" x="165" y="523.2607">: Rename the curent window</text><path d="M428,602.8594 L418,602.8594 C403,602.8594 403,518.4141 388,518.4141 L378,518.4141 " fill="none" style="stroke:#FFBBCC;stroke-width:3.0;"/><rect fill="#F1F1F1" height="36.2969" rx="12.5" ry="12.5" style="stroke:#FFBBCC;stroke-width:3.0;" width="161" x="217" y="556.5625"/><text fill="#000000" font-family="sans-serif" font-size="14" font-weight="bold" lengthAdjust="spacing" textLength="14" x="227" y="579.5576">w</text><text fill="#000000" font-family="sans-serif" font-size="14" lengthAdjust="spacing" textLength="123" x="241" y="579.5576">: List the windows</text><path d="M428,602.8594 L418,602.8594 C403,602.8594 403,574.7109 388,574.7109 L378,574.7109 " fill="none" style="stroke:#FFBBCC;stroke-width:3.0;"/><rect fill="#F1F1F1" height="36.2969" rx="12.5" ry="12.5" style="stroke:#FFBBCC;stroke-width:3.0;" width="215" x="163" y="612.8594"/><text fill="#000000" font-family="sans-serif" font-size="14" font-weight="bold" lengthAdjust="spacing" textLength="10" x="173" y="635.8545">n</text><text fill="#000000" font-family="sans-serif" font-size="14" lengthAdjust="spacing" textLength="181" x="183" y="635.8545">: Move to the next window</text><path d="M428,602.8594 L418,602.8594 C403,602.8594 403,631.0078 388,631.0078 L378,631.0078 " fill="none" style="stroke:#FFBBCC;stroke-width:3.0;"/><rect fill="#F1F1F1" height="36.2969" rx="12.5" ry="12.5" style="stroke:#FFBBCC;stroke-width:3.0;" width="217" x="161" y="669.1563"/><text fill="#000000" font-family="sans-serif" font-size="14" font-weight="bold" lengthAdjust="spacing" textLength="10" x="171" y="692.1514">p</text><text fill="#000000" font-family="sans-serif" font-size="14" lengthAdjust="spacing" textLength="183" x="181" y="692.1514">: Move to previous window</text><path d="M428,602.8594 L418,602.8594 C403,602.8594 403,687.3047 388,687.3047 L378,687.3047 " fill="none" style="stroke:#FFBBCC;stroke-width:3.0;"/><rect fill="#F1F1F1" height="36.2969" rx="12.5" ry="12.5" style="stroke:#FFBBCC;stroke-width:3.0;" width="368" x="10" y="725.4531"/><text fill="#000000" font-family="sans-serif" font-size="14" font-weight="bold" lengthAdjust="spacing" textLength="46" x="20" y="748.4482">0 to 9</text><text fill="#000000" font-family="sans-serif" font-size="14" lengthAdjust="spacing" textLength="298" x="66" y="748.4482">: Move the window to the number specified</text><path d="M428,602.8594 L418,602.8594 C403,602.8594 403,743.6016 388,743.6016 L378,743.6016 " fill="none" style="stroke:#FFBBCC;stroke-width:3.0;"/><path d="M698,409.5234 L688,409.5234 C673,409.5234 673,602.8594 658,602.8594 L648,602.8594 " fill="none" style="stroke:#181818;stroke-width:1.0;"/><!--SRC=[xPTjSnet4CVVwrFiJ9EndSQEWzCyKCBOWEcC0wt7uAGphYSZxXPEGITT9HsOPDpFNad7uy6Hr7vPtXsh__wqMccbvLGRgapCH1ZJX10zP2AXYiR0cK0pIH0IoIVk1zc33QDIcKWIOfZX2DtszPyGo3Yc8jI4LBIPSAoIARt1wC3vVYC0HmE5AFmdm1xKQ30SA9cAi2wvL1O_Y8oNU47BpbOuq8rOC1IeDPnOsxs3AwcnaFrJirchrUivSDwwWThZAMwFs2as1RnYtq2MYeh1beZFQ-zEtZJp4UUiUUuzgRoORW1v1fLUrSJf7U7ODw1PYDRuh6ojNLHsVoYVxrlbHQzAAe4ChUC-q14L1a84JaM02Xm43YpQ2tw5IYKBlbgrF0-iAwG6WOB0CMWR3vDYcUdYBV_pn9EsSLfC6w2SWudmUnpWUXlgp1WQH3QaAGQCz5GpNNiXbcQEXmPkVa_Z7ghFilzv2hdTEECqgvrCemkoUbCtYj_-VDExXVVlgt0JH5JThgRL7_9i2MxpFA0CFYbw1bzJFSbKLoXeZ12aIg6OwzVbOIPle5zbiNosga-saELuKU7_PJsk9XSp1zdCAsTbdD7pqkShQtBRPWDrSHRenqkPSkfCfjTq8jErvGXdvq7WNI4sMPKd2aTCfhf8Vkn4xvPzvg7CP_Cd2dI20Uip31SCejojiLAcbrJWmnBlBfz5N4zpYO-aOb-bCFO2q0bdPirXRo_dCK9bM52eZ-oJ02rtovmf9SVhIKxSIbmDsc-lonEO8rpv3Fm08XFc6LySeo77OYkYXjnltQhlqFbU9rizpthEalVyErFN5CC-du2EBDtBiwtMQmvo6Mzl_47azHgOi464g8xWBt7kYjEUDtkp6pgqWnEPBf_Ovv0AmxY_AsNVcUErYUwpYJfZccIBa9ePL-IPmxpsVRHZPg95FUHHtnw4cjTB7dStFLxSlTbh_dCrEKNRHCpQbDCVxreUrveyelDuQ6_ncDvXrntikeDTTx3h3dRTmQux-Fzs1vVsDJBNxPOxZFwkUdbKEYwT79NsEwc09lQWz1fU7fTBlvHVlO7wUHVSy07P_-so1LgcAa08xGMXM2zriH-G2_lGmPLBP8nb-2D1ST7uC3F0kHWn9KLiuo8N7ziBmUjNXpLR11rKDXBus2ODxDEK6-jX2v29GHckkyt3jwHbtuUK3YpRjXTr-y_Vg8aTw_mB]--></g></svg>